# xmcd CD database file
# Copyright (C) 1997 Ti Kan
# 
# Track frame offsets:
#     150
#     12702
#     26747
#     37127
#     50220
#     63672
#     77907
#     91657
#     106620
#     117487
#     130585
#     143125
# 
# Disc length: 2084 seconds
# 
# Revision: 1
# Processed by: cddbd v1.4b41PL1 Copyright (c) Steve Scherf et al.
# Submitted via: DiscPlay 4.0.3
# 
DISCID=a708220c
DTITLE=Various Artist - The Blues Volume 3
DYEAR=1900
DGENRE=
TTITLE0=Washboard Sam - Diggin' My Potatoes
TTITLE1=Willie Dixon - Walking the Blues
TTITLE2=Little Milton - Lonely No More
TTITLE3=Howlin' Wolf - I asked for Water (She gave me gasoline)
TTITLE4=Little Walter - Off the Wall
TTITLE5=Muddy Waters - Rollin' Stone
TTITLE6=John Lee Walker - It's my own fault
TTITLE7=Muddy Waters - Baby, please don't go
TTITLE8=Sonny Boy Williamson - Fattening frogs for snakes
TTITLE9=Jimmy Witherspoon - Time brings about a change
TTITLE10=Elmore James - The sun is shining
TTITLE11=Jimmy Rogers - The world's in a tangle
EXTD=
EXTT0=
EXTT1=
EXTT2=
EXTT3=
EXTT4=
EXTT5=
EXTT6=
EXTT7=
EXTT8=
EXTT9=
EXTT10=
EXTT11=
PLAYORDER=
